<svg xmlns="http://www.w3.org/2000/svg" version="1.1" xmlns:xlink="http://www.w3.org/1999/xlink" xmlns:svgjs="http://svgjs.com/svgjs" width="512" height="512" x="0" y="0" viewBox="0 0 423.253 423.253" style="enable-background:new 0 0 512 512" xml:space="preserve" class=""><g>
<g xmlns="http://www.w3.org/2000/svg">
	<g>
		<g>
			<path d="M229.547,309.547h1.493c1.893-1.366,3.978-2.444,6.187-3.2H240c1.664-0.784,3.495-1.15,5.333-1.067h2.773     c2.087-0.68,4.228-1.179,6.4-1.493H256l7.68-1.067h2.133h5.333h109.227V58.24h-94.72c-35.346,0-64,28.654-64,64l0.853,191.36     C224.706,312.008,227.065,310.649,229.547,309.547z" fill="#000000" data-original="#000000" class=""></path>
			<polygon points="42.88,57.813 42.88,58.24 42.88,58.24    " fill="#000000" data-original="#000000" class=""></polygon>
			<path d="M399.787,101.76v210.133c0.003,0.144,0.003,0.288,0,0.431c-0.119,5.301-4.513,9.501-9.813,9.382h-104.32     c-53.76,0-64,15.573-64,39.04v4.693c22.827-17.707,61.44-17.707,81.28-17.707h119.68l0.64-245.973H399.787z" fill="#000000" data-original="#000000" class=""></path>
			<path d="M152.32,307.2h5.12h2.773l7.893,1.067h1.493l6.4,1.493h2.773c1.819,0.101,3.615,0.46,5.333,1.067h2.773l6.187,3.2h1.493     c2.253,1.508,4.605,2.862,7.04,4.053V122.24c0-35.346-28.654-64-64-64H42.88V307.2H152.32z" fill="#000000" data-original="#000000" class=""></path>
			<path d="M137.6,322.347H33.28c-5.327-0.218-9.596-4.486-9.813-9.813V101.76H0v245.547h118.827c21.333,0,60.16,0,82.987,18.133     l-0.213-4.053C201.6,337.92,190.933,322.347,137.6,322.347z" fill="#000000" data-original="#000000" class=""></path>
		</g>
	</g>
</g>
<g xmlns="http://www.w3.org/2000/svg">
</g>
<g xmlns="http://www.w3.org/2000/svg">
</g>
<g xmlns="http://www.w3.org/2000/svg">
</g>
<g xmlns="http://www.w3.org/2000/svg">
</g>
<g xmlns="http://www.w3.org/2000/svg">
</g>
<g xmlns="http://www.w3.org/2000/svg">
</g>
<g xmlns="http://www.w3.org/2000/svg">
</g>
<g xmlns="http://www.w3.org/2000/svg">
</g>
<g xmlns="http://www.w3.org/2000/svg">
</g>
<g xmlns="http://www.w3.org/2000/svg">
</g>
<g xmlns="http://www.w3.org/2000/svg">
</g>
<g xmlns="http://www.w3.org/2000/svg">
</g>
<g xmlns="http://www.w3.org/2000/svg">
</g>
<g xmlns="http://www.w3.org/2000/svg">
</g>
<g xmlns="http://www.w3.org/2000/svg">
</g>
</g></svg>