<svg width="29" height="26" viewBox="0 0 29 26" fill="none" xmlns="http://www.w3.org/2000/svg">
<path d="M15.7278 20.9577H15.8301C15.9598 20.8467 16.1026 20.7591 16.254 20.6977H16.444C16.558 20.634 16.6834 20.6042 16.8094 20.611H16.9994C17.1424 20.5557 17.2891 20.5151 17.4379 20.4896H17.5402L18.0664 20.4029H18.2126H18.578H26.0619V0.534698H19.572C17.1502 0.534698 15.1869 2.86333 15.1869 5.7358L15.2453 21.2871C15.3961 21.1577 15.5577 21.0473 15.7278 20.9577Z" fill="#FFC5D0"/>
<path d="M27.3921 4.07146V21.1484C27.3923 21.1601 27.3923 21.1718 27.3921 21.1834C27.384 21.6142 27.0829 21.9555 26.7198 21.9459H19.5721C15.8886 21.9459 15.187 23.2114 15.187 25.1185V25.4999C16.751 24.0609 19.3967 24.0609 20.7561 24.0609H28.9561L29 4.07138H27.3921V4.07146Z" fill="#FFC5D0"/>
<path d="M10.4365 20.767H10.7873H10.9773L11.5181 20.8537H11.6204L12.0589 20.975H12.2489C12.3735 20.9832 12.4966 21.0124 12.6143 21.0617H12.8043L13.2282 21.3218H13.3305C13.4848 21.4444 13.646 21.5544 13.8128 21.6512V5.7358C13.8128 2.86333 11.8496 0.534698 9.42776 0.534698H2.93799V20.767H10.4365Z" fill="#FFC5D0"/>
<path d="M9.42791 21.998H2.28024C1.91525 21.9802 1.62275 21.6334 1.60788 21.2005V4.07146H0V24.0264H8.14165C9.60331 24.0264 12.2636 24.0264 13.8276 25.5L13.8131 25.1706C13.813 23.2635 13.0821 21.998 9.42791 21.998Z" fill="#FFC5D0"/>
</svg>
