<svg width="172" height="172" viewBox="0 0 172 172" fill="none" xmlns="http://www.w3.org/2000/svg">
<g clip-path="url(#clip0_296_35)">
<path d="M93.1018 125.933H93.7047C94.469 125.381 95.3109 124.946 96.2028 124.64H97.3225C97.9944 124.324 98.7337 124.176 99.4758 124.21H100.596C101.438 123.935 102.303 123.734 103.18 123.607H103.783L106.884 123.176H107.745H109.898H154.002V24.4609H115.756C101.484 24.4609 89.9144 36.0307 89.9144 50.3025L90.2588 127.569C91.1472 126.926 92.0997 126.377 93.1018 125.933Z" fill="#01001F"/>
<path d="M161.841 42.0332V126.88C161.842 126.938 161.842 126.996 161.841 127.054C161.793 129.194 160.018 130.89 157.878 130.842H115.756C94.0495 130.842 89.9149 137.13 89.9149 146.605V148.5C99.1318 141.351 114.723 141.351 122.734 141.351H171.058L171.316 42.0328H161.841V42.0332Z" fill="#01001F"/>
<path d="M61.9195 124.985H63.9868H65.1065L68.2935 125.416H68.8963L71.4805 126.019H72.6001C73.3346 126.059 74.0598 126.204 74.7535 126.449H75.8732L78.3713 127.741H78.9741C79.8839 128.35 80.8335 128.897 81.8167 129.378V50.3025C81.8167 36.0307 70.2469 24.4609 55.9751 24.4609H17.7303V124.985H61.9195Z" fill="#01001F"/>
<path d="M55.9759 131.101H13.854C11.7031 131.013 9.9794 129.29 9.89178 127.139V42.0332H0.416382V141.179H48.3958C57.0096 141.179 72.687 141.179 81.9039 148.501L81.8179 146.864C81.8175 137.389 77.5105 131.101 55.9759 131.101Z" fill="#01001F"/>
</g>
<defs>
<clipPath id="clip0_296_35">
<rect width="170.899" height="170.899" fill="white" transform="translate(0.416382 0.945007)"/>
</clipPath>
</defs>
</svg>
