<svg width="36" height="25" viewBox="0 0 36 25" fill="none" xmlns="http://www.w3.org/2000/svg">
<path d="M19.414 20.4577H19.5402C19.7003 20.3467 19.8767 20.2591 20.0635 20.1976H20.298C20.4388 20.1339 20.5936 20.1042 20.7491 20.1109H20.9836C21.1601 20.0557 21.3412 20.0151 21.5249 19.9896H21.6512L22.3008 19.9029H22.4812H22.9322H32.17V0.034668H24.1591C21.1697 0.034668 18.7463 2.3633 18.7463 5.23577L18.8185 20.7871C19.0045 20.6577 19.2041 20.5473 19.414 20.4577Z" fill="#FF8FAA"/>
<path d="M33.8121 3.57149V20.6484C33.8124 20.6601 33.8124 20.6718 33.8121 20.6834C33.8021 21.1142 33.4305 21.4556 32.9822 21.4459H24.1593C19.6125 21.4459 18.7465 22.7115 18.7465 24.6186V24.9999C20.6771 23.5609 23.9428 23.5609 25.6208 23.5609H35.7427L35.7969 3.57141H33.8121V3.57149Z" fill="#FF8FAA"/>
<path d="M12.8826 20.267H13.3156H13.5501L14.2177 20.3537H14.344L14.8852 20.475H15.1198C15.2736 20.4832 15.4255 20.5124 15.5708 20.5617H15.8053L16.3286 20.8218H16.4549C16.6454 20.9443 16.8444 21.0544 17.0503 21.1512V5.23577C17.0503 2.3633 14.6269 0.034668 11.6374 0.034668H3.62659V20.267H12.8826Z" fill="#FF8FAA"/>
<path d="M11.6376 21.498H2.81467C2.36413 21.4802 2.00308 21.1334 1.98473 20.7005V3.57147H0V23.5264H10.0498C11.8541 23.5264 15.1379 23.5264 17.0685 25L17.0505 24.6706C17.0504 22.7635 16.1482 21.498 11.6376 21.498Z" fill="#FF8FAA"/>
</svg>
