<svg width="146" height="146" viewBox="0 0 146 146" fill="none" xmlns="http://www.w3.org/2000/svg">
<g clip-path="url(#clip0_305_118)">
<path d="M103.124 16.3873L98.2203 24.8722L115.211 34.6793L120.115 26.1941C121.465 23.8388 120.661 20.8503 118.315 19.4896L109.83 14.5859C107.482 13.2266 104.485 14.0308 103.124 16.3873Z" fill="#01001F"/>
<path d="M73 22.0813C76.1013 22.0813 79.1308 22.3848 82.125 22.8125V14.876L88.3985 14.8281V4.5625C88.3985 2.04066 86.3578 0 83.836 0H62.212C59.6901 0 57.6495 2.04066 57.6495 4.5625V14.8281L63.875 14.876V22.8125C66.8692 22.3848 69.8987 22.0813 73 22.0813Z" fill="#01001F"/>
<path d="M73 27.375C40.2426 27.375 13.6875 53.9298 13.6875 86.6875C13.6875 119.445 40.2426 146 73 146C105.757 146 132.313 119.445 132.313 86.6875C132.313 53.9298 105.757 27.375 73 27.375ZM100.717 114.564L66.1561 90.6376V56.8589H76.1299V85.4121L106.394 106.364L100.717 114.564Z" fill="#01001F"/>
</g>
<defs>
<clipPath id="clip0_305_118">
<rect width="146" height="146" fill="white"/>
</clipPath>
</defs>
</svg>
