<svg width="778" height="645" viewBox="0 0 778 645" fill="none" xmlns="http://www.w3.org/2000/svg">
<ellipse rx="5.47303" ry="5.88995" transform="matrix(-1 0 0 1 192.66 368.468)" fill="#D3EAFF"/>
<ellipse rx="5.47303" ry="5.88995" transform="matrix(-1 0 0 1 98.7434 255.086)" fill="#D3EAFF"/>
<ellipse rx="7.20136" ry="7.74994" transform="matrix(-1 0 0 1 145.336 135.892)" fill="#D3EAFF"/>
<ellipse cx="770.257" cy="111.938" rx="8.23554" ry="7.62836" transform="rotate(-90 770.257 111.938)" fill="#D3EAFF"/>
<ellipse cx="573.411" cy="8.23553" rx="8.23554" ry="7.62836" transform="rotate(-90 573.411 8.23553)" fill="#D3EAFF"/>
<ellipse cx="369.037" cy="78.346" rx="10.8362" ry="10.0373" transform="rotate(-90 369.037 78.346)" fill="#D3EAFF"/>
<ellipse cx="8.23554" cy="637.257" rx="8.23554" ry="7.62836" fill="#D3EAFF"/>
<ellipse cx="136.938" cy="490.411" rx="8.23554" ry="7.62836" fill="#D3EAFF"/>
<ellipse cx="41.8279" cy="336.037" rx="10.8362" ry="10.0373" fill="#D3EAFF"/>
<ellipse cx="637.257" cy="312.938" rx="8.23554" ry="7.62836" transform="rotate(-90 637.257 312.938)" fill="#D3EAFF"/>
<ellipse cx="490.411" cy="184.236" rx="8.23554" ry="7.62836" transform="rotate(-90 490.411 184.236)" fill="#D3EAFF"/>
<ellipse cx="336.037" cy="279.346" rx="10.8362" ry="10.0373" transform="rotate(-90 336.037 279.346)" fill="#D3EAFF"/>
</svg>
