<svg width="28" height="24" viewBox="0 0 28 24" fill="none" xmlns="http://www.w3.org/2000/svg">
<path d="M2.89658 0.5C1.29669 0.5 0 1.9244 0 3.6818C0 5.4392 1.29669 6.86365 2.89658 6.86365C4.49642 6.86365 5.79312 5.43925 5.79312 3.6818C5.79312 1.92435 4.49642 0.5 2.89658 0.5ZM2.89658 8.98482C1.29669 8.98482 0 10.4093 0 12.1667C0 13.9241 1.29669 15.3485 2.89658 15.3485C4.49642 15.3485 5.79312 13.9241 5.79312 12.1667C5.79312 10.4093 4.49642 8.98482 2.89658 8.98482ZM2.89658 17.4697C1.29669 17.4697 0 18.8941 0 20.6515C0 22.4089 1.29669 23.8333 2.89658 23.8333C4.49642 23.8333 5.79312 22.4089 5.79312 20.6515C5.79312 18.8941 4.49642 17.4697 2.89658 17.4697ZM10.6207 5.80302H26.069C27.1358 5.80302 28 4.85375 28 3.6818C28 2.50985 27.1358 1.56058 26.069 1.56058H10.6207C9.55381 1.56058 8.68965 2.50985 8.68965 3.6818C8.68965 4.85375 9.55381 5.80302 10.6207 5.80302ZM26.069 10.0455H10.6207C9.55381 10.0455 8.68965 10.9947 8.68965 12.1667C8.68965 13.3386 9.55381 14.2879 10.6207 14.2879H26.069C27.1358 14.2879 28 13.3386 28 12.1667C28 10.9947 27.1358 10.0455 26.069 10.0455ZM26.069 18.5303H10.6207C9.55381 18.5303 8.68965 19.4795 8.68965 20.6515C8.68965 21.8234 9.55381 22.7727 10.6207 22.7727H26.069C27.1358 22.7727 28 21.8234 28 20.6515C28 19.4795 27.1358 18.5303 26.069 18.5303Z" fill="#EE7995"/>
</svg>
