<svg width="154" height="154" viewBox="0 0 154 154" fill="none" xmlns="http://www.w3.org/2000/svg">
<g clip-path="url(#clip0_297_74)">
<path d="M50.7956 25.5956V106.913C46.0638 102.692 39.8285 100.122 33.0034 100.122C18.2493 100.122 6.24572 112.125 6.24572 126.88C6.24572 141.634 18.2493 153.638 33.0034 153.638C47.7394 153.638 59.7304 141.665 59.7609 126.936H59.7615V61.5844L139.353 41.4087V85.3266C134.621 81.1056 128.386 78.5358 121.561 78.5358C106.806 78.5358 94.8027 90.5393 94.8027 105.293C94.8027 120.048 106.806 132.051 121.561 132.051C136.315 132.051 148.318 120.048 148.318 105.293V0.874512L50.7956 25.5956Z" fill="#01001F"/>
</g>
<defs>
<clipPath id="clip0_297_74">
<rect width="152.763" height="152.763" fill="white" transform="translate(0.900497 0.874512)"/>
</clipPath>
</defs>
</svg>
