<svg width="26" height="26" viewBox="0 0 26 26" fill="none" xmlns="http://www.w3.org/2000/svg">
<g clip-path="url(#clip0_220_90)">
<path d="M7.25863 10.581L21.7132 0.638583C22.3072 0.229151 22.9249 0.0130615 23.4537 0.0130615C24.6149 0.0130615 25.3846 0.986938 25.3846 2.55411V23.4594C25.3846 24.225 25.162 24.8646 24.832 25.3098C24.4969 25.7612 23.9727 26 23.4064 26C22.8777 26 22.2844 25.7835 21.6907 25.3747L7.24915 15.4323C6.32077 14.7924 5.81172 13.9312 5.81193 13.0062C5.81193 12.0816 6.32898 11.2204 7.25863 10.581Z" fill="#FF8FAA"/>
<path d="M1.96567 25.9935L1.98168 25.9933C1.98431 25.9933 1.98688 25.9935 1.9895 25.9935H1.96567Z" fill="#FF8FAA"/>
<path d="M2.00914 0L2.60665 0.00168491C3.38907 0.00168491 4.06641 0.639422 4.06641 1.4229V24.5571C4.06641 25.3414 3.40024 25.9853 2.61676 25.9853L1.98202 25.9933C1.20249 25.9891 0.615301 25.3397 0.615301 24.5583V1.42143C0.615301 0.637948 1.22608 0 2.00914 0Z" fill="#FF8FAA"/>
</g>
<defs>
<clipPath id="clip0_220_90">
<rect width="26" height="26" fill="white" transform="matrix(-1 0 0 1 26 0)"/>
</clipPath>
</defs>
</svg>
