<svg width="51" height="51" viewBox="0 0 51 51" fill="none" xmlns="http://www.w3.org/2000/svg">
<path d="M25.5 4.25C21.2972 4.25 17.1887 5.49629 13.6941 7.83127C10.1996 10.1663 7.47593 13.485 5.86757 17.368C4.25921 21.2509 3.83839 25.5236 4.65832 29.6457C5.47826 33.7678 7.50212 37.5542 10.474 40.526C13.4459 43.4979 17.2322 45.5218 21.3543 46.3417C25.4764 47.1616 29.7491 46.7408 33.632 45.1324C37.515 43.5241 40.8338 40.8004 43.1687 37.3059C45.5037 33.8113 46.75 29.7029 46.75 25.5C46.75 22.7094 46.2004 19.9461 45.1324 17.368C44.0645 14.7898 42.4993 12.4472 40.526 10.474C38.5528 8.50074 36.2102 6.93547 33.632 5.86756C31.0539 4.79965 28.2906 4.25 25.5 4.25ZM23.375 31.875C23.375 32.4386 23.1511 32.9791 22.7526 33.3776C22.3541 33.7761 21.8136 34 21.25 34C20.6864 34 20.1459 33.7761 19.7474 33.3776C19.3489 32.9791 19.125 32.4386 19.125 31.875V19.125C19.125 18.5614 19.3489 18.0209 19.7474 17.6224C20.1459 17.2239 20.6864 17 21.25 17C21.8136 17 22.3541 17.2239 22.7526 17.6224C23.1511 18.0209 23.375 18.5614 23.375 19.125V31.875ZM31.875 31.875C31.875 32.4386 31.6511 32.9791 31.2526 33.3776C30.8541 33.7761 30.3136 34 29.75 34C29.1864 34 28.6459 33.7761 28.2474 33.3776C27.8489 32.9791 27.625 32.4386 27.625 31.875V19.125C27.625 18.5614 27.8489 18.0209 28.2474 17.6224C28.6459 17.2239 29.1864 17 29.75 17C30.3136 17 30.8541 17.2239 31.2526 17.6224C31.6511 18.0209 31.875 18.5614 31.875 19.125V31.875Z" fill="#FF8FAA"/>
</svg>
