<svg width="43" height="43" viewBox="0 0 43 43" fill="none" xmlns="http://www.w3.org/2000/svg">
<path d="M21.5 0C9.59634 0 0 9.59634 0 21.5C0 33.4037 9.59634 43 21.5 43C33.4037 43 43 33.4037 43 21.5C43 9.59634 33.4037 0 21.5 0ZM31.0439 22.4963L16.728 30.8866C16.5707 30.9915 16.3085 31.0439 16.1512 31.0439C15.9939 31.0439 15.7317 30.9915 15.5744 30.8866C15.2073 30.6244 14.9976 30.3098 14.9976 29.8902V13.1622H14.9451C14.9451 12.7427 15.2073 12.3232 15.522 12.1659C15.8366 12.0085 16.361 11.9037 16.728 12.1659L31.0439 20.5037C31.411 20.7659 31.6207 21.0805 31.6207 21.5C31.6207 21.9195 31.3585 22.339 31.0439 22.4963Z" fill="#FF8FAA"/>
</svg>
