<svg width="151" height="126" viewBox="0 0 151 126" fill="none" xmlns="http://www.w3.org/2000/svg">
<path d="M145.803 0H4.40048C1.9699 0 0 1.9699 0 4.40048V120.997C0 123.428 1.9699 125.398 4.40048 125.398H145.803C148.233 125.398 150.203 123.428 150.203 120.997V4.40048C150.203 1.9699 148.233 0 145.803 0ZM56.4855 77.4714V47.9263C56.4855 45.8131 57.691 43.8868 59.6311 42.899C61.6022 41.8963 64.0007 42.0303 65.825 43.2244L91.004 57.9225C91.1324 57.997 91.2562 58.0783 91.3765 58.1654C92.8651 59.2495 93.7188 60.902 93.7188 62.6989C93.7188 64.4957 92.8651 66.1482 91.3765 67.2323C91.2562 67.3194 91.1324 67.4007 91.004 67.4752L65.825 82.1733C64.8166 82.8322 63.6351 83.168 62.4456 83.168C61.4818 83.168 60.5135 82.9468 59.6311 82.4976C57.6899 81.5109 56.4855 79.5846 56.4855 77.4714ZM103.332 16.4628V8.80097H118.098V16.4628H103.332ZM94.5313 16.4628H79.7645V8.80097H94.5313V16.4628ZM70.9635 16.4628H56.1978V8.80097H70.9635V16.4628ZM47.3969 16.4628H32.6312V8.80097H47.3969V16.4628ZM47.3969 108.935V116.597H32.6312V108.935H47.3969ZM56.1978 108.935H70.9635V116.597H56.1978V108.935ZM79.7645 108.935H94.5313V116.597H79.7645V108.935ZM103.332 108.935H118.098V116.597H103.332V108.935ZM141.402 16.4628H126.899V8.80097H141.402V16.4628ZM23.8302 8.80097V16.4628H8.80097V8.80097H23.8302ZM8.80097 108.935H23.8302V116.597H8.80097V108.935ZM126.899 116.597V108.935H141.402V116.597H126.899Z" fill="#01001F"/>
</svg>
